<svg width="32" height="32" viewBox="0 0 32 32" fill="none" xmlns="http://www.w3.org/2000/svg">
  <circle cx="16" cy="16" r="16" fill="black"/>
  <path d="M16 4C9.373 4 4 9.373 4 16C4 22.627 9.373 28 16 28C22.627 28 28 22.627 28 16C28 9.373 22.627 4 16 4ZM21.333 21.333C21.027 21.333 20.72 21.213 20.493 20.987C19.173 19.667 17.373 18.893 15.467 18.893C13.56 18.893 11.76 19.667 10.44 20.987C10.213 21.213 9.907 21.333 9.6 21.333C9.293 21.333 8.987 21.213 8.76 20.987C8.307 20.533 8.307 19.8 8.76 19.347C10.4 17.707 12.8 16.667 15.467 16.667C18.133 16.667 20.533 17.707 22.173 19.347C22.627 19.8 22.627 20.533 22.173 20.987C21.947 21.213 21.64 21.333 21.333 21.333ZM9.667 16C9.667 14.16 11.16 12.667 13 12.667C14.84 12.667 16.333 14.16 16.333 16C16.333 17.84 14.84 19.333 13 19.333C11.16 19.333 9.667 17.84 9.667 16ZM22.333 19.333C20.493 19.333 18.667 17.84 18.667 16C18.667 14.16 20.493 12.667 22.333 12.667C24.173 12.667 26 14.16 26 16C26 17.84 24.173 19.333 22.333 19.333Z" fill="#1DB954"/>
</svg>